<svg t="1593066366056" class="icon" viewBox="0 0 1024 1024" version="1.1" xmlns="http://www.w3.org/2000/svg" p-id="2262" width="200" height="200"><path d="M540.5696 102.4c-225.83296 0-409.6 183.74656-409.6 409.6s183.76704 409.6 409.6 409.6c225.85344 0 409.6-183.74656 409.6-409.6s-183.74656-409.6-409.6-409.6z m158.84288 480.5632l-128.59392 109.19936a46.6944 46.6944 0 0 1-60.5184 0l-128.59392-109.19936a46.75584 46.75584 0 0 1 60.49792-71.24992l51.63008 43.84768v-188.12928a46.6944 46.6944 0 1 1 93.45024 0v188.12928l51.63008-43.84768a46.81728 46.81728 0 0 1 65.88416 5.36576c16.6912 19.68128 14.27456 49.152-5.38624 65.88416z" p-id="2263" fill="#FF9A3C"></path></svg>