<svg t="1593066428701" class="icon" viewBox="0 0 1024 1024" version="1.1" xmlns="http://www.w3.org/2000/svg" p-id="4600" width="200" height="200"><path d="M540.5696 102.4c-225.83296 0-409.6 183.74656-409.6 409.6s183.76704 409.6 409.6 409.6c225.85344 0 409.6-183.74656 409.6-409.6s-183.74656-409.6-409.6-409.6z m164.20864 404.52096a46.65344 46.65344 0 0 1-65.86368 5.36576l-51.63008-43.84768v188.1088a46.6944 46.6944 0 1 1-93.42976 0v-188.1088l-51.63008 43.84768a46.73536 46.73536 0 0 1-60.49792-71.22944l128.59392-109.21984a46.75584 46.75584 0 0 1 60.49792 0l128.59392 109.21984a46.73536 46.73536 0 0 1 5.36576 65.86368z" p-id="4601" fill="#FF9A3C"></path></svg>