<svg t="1609341160421" class="icon" viewBox="0 0 1109 1024" version="1.1" xmlns="http://www.w3.org/2000/svg" p-id="2593" width="200" height="200"><path d="M1024 0H85.279495A85.279495 85.279495 0 0 0 0 85.279495v682.235962a85.925552 85.925552 0 0 0 85.279495 85.925552h253.900316l172.497161 170.558991 129.211356-170.558991h380.527445a85.925552 85.925552 0 0 0 85.279495-85.925552V85.279495A85.279495 85.279495 0 0 0 1024 0zM646.056782 588.557729H204.8a34.241009 34.241009 0 1 1 0-64.605679H646.056782a34.241009 34.241009 0 0 1 0 64.605679z m170.558991-170.558991H204.8a34.241009 34.241009 0 0 1 0-68.482019h614.4a34.241009 34.241009 0 1 1 0 68.482019z m0-170.55899H204.8a34.241009 34.241009 0 0 1 0-68.482019h614.4a34.241009 34.241009 0 1 1 0 68.482019z" fill="#bfbfbf" p-id="2594"></path></svg>