<svg t="1593573116026" class="icon" viewBox="0 0 1024 1024" version="1.1" xmlns="http://www.w3.org/2000/svg" p-id="14974" width="200" height="200"><path d="M938.666667 725.333333v85.333334H341.333333v-85.333334h597.333334z m0-256v85.333334H341.333333v-85.333334h597.333334z m0-256v85.333334H341.333333V213.333333h597.333334zM170.666667 853.333333a85.333333 85.333333 0 1 1 0-170.666666 85.333333 85.333333 0 0 1 0 170.666666z m0-256a85.333333 85.333333 0 1 1 0-170.666666 85.333333 85.333333 0 0 1 0 170.666666z m0-256a85.333333 85.333333 0 1 1 0-170.666666 85.333333 85.333333 0 0 1 0 170.666666z" p-id="14975" fill="#dbdbdb"></path></svg>