<svg t="1608711351219" class="icon" viewBox="0 0 1024 1024" version="1.1" xmlns="http://www.w3.org/2000/svg" p-id="6341" width="200" height="200"><path d="M690.316 391.447v-290.65S548.088 24.55 382.06 83.34l308.256 308.107z m26.926 170.99V112.798s168.14 76.196 215.522 261.294L717.242 562.437zM626.79 693.132l310.39-291.891s54.92 89.289-26.98 291.891H626.79z m-158.491 37.009h419.215s-50.608 137.167-231.739 193.8l-187.476-193.8z m-136.846-92.6v273.26s108.877 69.723 295.337 22.91L331.452 637.54zM88.928 651.677l212.347-190.528v433.287c0-0.001-128.29-44.533-212.347-242.759z m-5.381-30.474S34.973 464.47 102.912 328.344h292.065L83.547 621.202z m37.714-323.406s61.443-139.301 228.49-204.662l199.354 204.662H121.26z" p-id="6342" fill="#8a8a8a"></path></svg>