<?xml version="1.0" encoding="utf-8"?>
<!-- Generator: Adobe Illustrator 23.0.3, SVG Export Plug-In . SVG Version: 6.00 Build 0)  -->
<svg version="1.1" id="Layer_1" xmlns="http://www.w3.org/2000/svg" xmlns:xlink="http://www.w3.org/1999/xlink" x="0px" y="0px"
	 viewBox="0 0 263 189" style="enable-background:new 0 0 263 189;" xml:space="preserve">
<style type="text/css">
	.st0{fill:none;stroke:#F8993F;stroke-miterlimit:10;}
	.st1{opacity:0.3;fill:#F8993F;}
	.st2{fill:#F8993F;}
	.st3{fill:#FFFFFF;}
</style>
<g>
	<path class="st0" d="M251.7,159.5H11.3c-5.9,0-10.8-4.8-10.8-10.8V11.3c0-5.9,4.8-10.8,10.8-10.8h240.5c5.9,0,10.8,4.8,10.8,10.8
		v137.5C262.5,154.7,257.7,159.5,251.7,159.5z"/>
	<circle class="st1" cx="60.3" cy="32.8" r="12.6"/>
	<path class="st1" d="M235.9,113.9L177.8,54c-3.2-3.3-8.3-3.3-11.5,0l-45,46.4L96.7,75.1c-3.2-3.3-8.3-3.3-11.5,0l-58.2,59.9
		c-2,2-2.7,4.9-2.2,7.5h182.2h12.6h18.7v-22.7C238.3,117.6,237.5,115.5,235.9,113.9z"/>
	<circle class="st2" cx="131.5" cy="159.5" r="29.5"/>
	<g>
		<path class="st3" d="M131.5,171.7c-0.9,0-1.5-0.6-1.5-1.5v-21.4c0-0.9,0.6-1.5,1.5-1.5s1.5,0.6,1.5,1.5v21.4
			C133,171,132.4,171.7,131.5,171.7z"/>
		<path class="st3" d="M142.2,161c-0.5,0-0.8-0.2-1.1-0.5l-9.6-9.6l-9.6,9.6c-0.6,0.6-1.5,0.6-2.1,0c-0.6-0.6-0.6-1.5,0-2.1
			l10.7-10.7c0.6-0.6,1.5-0.6,2.1,0l10.7,10.7c0.6,0.6,0.6,1.5,0,2.1C142.9,160.8,142.6,161,142.2,161z"/>
	</g>
</g>
</svg>
